<?xml version="1.0" standalone="no"?>
<!DOCTYPE svg PUBLIC "-//W3C//DTD SVG 20010904//EN"
 "http://www.w3.org/TR/2001/REC-SVG-20010904/DTD/svg10.dtd">
<svg version="1.0" xmlns="http://www.w3.org/2000/svg"
 width="280.000000pt" height="280.000000pt" viewBox="0 0 280.000000 280.000000"
 preserveAspectRatio="xMidYMid meet">
<metadata>
Created by potrace 1.14, written by Peter Selinger 2001-2017
</metadata>
<g transform="translate(0.000000,280.000000) scale(0.100000,-0.100000)"
fill="#000000" stroke="none">
<path d="M295 1850 c-198 -49 -321 -240 -285 -442 14 -77 44 -132 107 -196 51
-51 128 -96 146 -85 4 3 54 7 110 8 56 2 116 8 132 13 22 7 9 8 -48 4 -65 -4
-80 -2 -97 13 -25 22 -26 45 -2 46 27 2 106 9 120 11 6 1 12 4 12 7 0 3 -36 5
-80 3 -76 -4 -80 -3 -89 19 -12 32 1 38 92 41 99 4 79 16 -24 14 -55 -1 -80 3
-84 12 -3 8 6 12 28 13 18 0 51 1 75 2 75 2 47 22 -30 22 l-73 0 -3 33 c-4 35
-9 33 116 36 17 0 32 6 32 12 0 7 -27 9 -81 7 -62 -3 -80 -1 -77 9 3 8 25 14
59 15 156 4 287 34 345 78 44 34 44 43 -1 16 -33 -19 -35 -19 -35 -2 0 10 -7
37 -15 60 -14 39 -13 42 10 65 l24 24 18 -26 c10 -15 28 -47 40 -72 32 -63 29
-31 -3 36 -25 54 -86 124 -134 155 -79 51 -213 72 -305 49z m78 -17 c-7 -2
-19 -2 -25 0 -7 3 -2 5 12 5 14 0 19 -2 13 -5z m142 -19 c70 -29 33 -24 -80
11 l-50 15 48 -6 c26 -3 63 -12 82 -20z m-250 -14 c-58 -37 -74 -52 -100 -91
-15 -21 -32 -36 -38 -32 -6 3 -7 1 -3 -5 10 -16 -25 -132 -40 -132 -7 0 -19 7
-28 15 -13 14 -13 20 5 64 27 64 80 121 153 165 62 38 103 50 51 16z m144 -27
c12 -14 20 -28 18 -29 -6 -7 -106 -11 -104 -5 30 68 53 77 86 34z m-105 -8
c-16 -25 -54 -35 -54 -15 0 8 49 37 68 40 1 0 -5 -11 -14 -25z m196 5 c23 -18
23 -20 5 -21 -11 0 -27 -2 -36 -4 -10 -2 -21 7 -28 21 -9 21 -8 24 12 24 12 0
33 -9 47 -20z m118 -20 c28 -17 31 -23 22 -40 -6 -11 -15 -20 -20 -20 -9 0
-60 62 -60 73 0 13 25 7 58 -13z m-52 -36 c13 -14 24 -28 24 -32 0 -11 -87
-35 -104 -29 -7 3 -16 17 -18 32 -5 23 -1 29 26 41 42 18 45 18 72 -12z m-288
1 c2 -2 1 -20 -2 -41 l-7 -36 -47 7 c-26 4 -49 9 -51 11 -2 2 7 20 20 39 21
31 28 35 53 30 16 -3 32 -7 34 -10z m173 -39 c5 -17 7 -31 6 -33 -2 -1 -33 -4
-70 -6 -74 -4 -88 4 -80 44 5 25 7 26 71 25 64 -1 66 -2 73 -30z m175 -48 c5
-13 7 -26 6 -30 -1 -5 3 -8 8 -8 6 0 10 -13 10 -28 0 -26 -4 -29 -57 -40 -71
-15 -120 -21 -198 -23 -102 -2 -101 -2 -101 31 0 27 3 30 40 35 61 9 169 10
183 2 6 -4 15 -3 18 3 4 6 3 10 -2 9 -13 -3 -54 16 -56 26 -2 7 96 40 130 44
6 0 15 -9 19 -21z m-384 -5 c46 -9 31 -34 -34 -54 -64 -19 -86 -11 -68 26 1 3
3 8 4 13 4 23 20 33 43 27 14 -3 39 -9 55 -12z m226 -21 c2 -8 -17 -12 -60
-13 -34 0 -73 -2 -85 -3 -15 -2 -23 3 -23 13 0 13 13 16 82 15 52 -1 83 -5 86
-12z m-204 -76 l5 -28 -57 7 c-31 3 -61 10 -65 14 -7 7 101 42 110 37 1 -1 4
-14 7 -30z m-205 10 c9 -11 8 -15 -5 -20 -22 -9 -23 -8 -21 14 2 23 10 25 26
6z m40 -83 c1 -26 4 -50 7 -55 9 -14 -30 4 -53 25 l-22 20 20 28 c30 42 45 37
48 -18z m81 34 c19 -7 45 -12 57 -11 23 1 40 -23 26 -37 -4 -4 -22 -10 -40
-13 -18 -4 -44 -11 -59 -16 -34 -13 -36 -11 -40 45 -4 50 -1 52 56 32z m95
-105 c1 -18 -3 -22 -29 -21 -17 1 -44 5 -61 9 -32 7 -27 12 35 29 45 12 53 10
55 -17z m-201 -23 c-9 -14 -27 -6 -30 14 -2 14 1 15 17 6 11 -5 17 -15 13 -20z
m68 -61 l18 -38 -34 17 c-43 20 -52 40 -29 65 13 15 19 16 22 6 2 -7 12 -30
23 -50z m91 38 c20 -1 42 -7 49 -14 9 -9 4 -15 -23 -26 -69 -28 -74 -28 -92 3
-24 40 -22 53 7 45 13 -3 40 -6 59 -8z m72 -96 c-3 -5 -20 -4 -39 0 -19 4 -37
5 -40 2 -4 -3 -6 -1 -6 5 0 6 15 15 33 20 25 8 35 7 44 -5 7 -8 10 -18 8 -22z
m-165 -12 c0 -6 -6 -5 -15 2 -8 7 -15 14 -15 16 0 2 7 1 15 -2 8 -4 15 -11 15
-16z m75 -28 c40 -32 33 -40 -15 -15 -17 9 -30 22 -30 30 0 20 2 20 45 -15z
m116 -11 c23 -30 24 -39 2 -39 -20 0 -103 47 -103 59 0 4 19 7 41 6 31 -1 46
-8 60 -26z"/>
<path d="M713 1472 c-9 -6 -12 -45 -12 -140 1 -126 2 -131 20 -121 14 7 19 21
19 48 l0 38 52 5 c65 7 85 28 82 89 -1 24 -2 47 -3 51 -4 28 -126 50 -158 30z
m114 -44 c12 -9 12 -72 1 -83 -6 -6 -47 -9 -75 -6 -9 1 -13 18 -13 50 0 39 4
50 18 53 21 5 53 -2 69 -14z"/>
<path d="M1748 1464 c-2 -11 -4 -71 -3 -134 l0 -115 61 -1 c83 -1 106 16 113
87 8 71 -1 136 -22 156 -11 11 -39 18 -80 21 -56 4 -65 2 -69 -14z m129 -37
c5 -3 7 -40 6 -82 -1 -86 -7 -95 -64 -95 l-36 0 0 95 c0 78 3 95 16 98 16 3
62 -6 78 -16z"/>
<path d="M2363 1464 c-8 -21 13 -42 28 -27 13 13 5 43 -11 43 -6 0 -13 -7 -17
-16z"/>
<path d="M937 1463 c-6 -11 -6 -246 0 -256 3 -4 11 -3 19 4 21 17 20 259 0
259 -8 0 -17 -3 -19 -7z"/>
<path d="M1629 1458 c-1 -7 -1 -20 0 -29 1 -9 -11 -24 -26 -35 l-28 -18 25 -6
c24 -6 25 -9 26 -84 1 -42 4 -79 7 -82 2 -3 11 2 19 9 10 10 14 35 13 81 -1
54 2 67 16 71 28 9 32 35 5 35 -20 0 -23 4 -20 35 2 29 -1 35 -17 35 -10 0
-20 -6 -20 -12z"/>
<path d="M485 1430 c17 -4 41 -8 55 -8 22 0 22 1 -5 8 -16 4 -41 8 -55 8 -22
0 -22 -1 5 -8z"/>
<path d="M1060 1401 c0 -22 2 -26 13 -23 21 6 57 -8 57 -23 0 -9 -8 -12 -22
-9 -35 6 -75 -14 -81 -42 -11 -60 16 -93 76 -90 15 1 27 -3 27 -8 0 -5 8 -2
18 7 14 13 18 33 19 90 1 40 -2 79 -6 86 -11 17 -101 28 -101 12z m65 -121 c0
-21 -5 -25 -29 -25 -21 0 -30 5 -32 19 -4 29 5 38 34 34 21 -2 27 -8 27 -28z"/>
<path d="M1226 1394 c-12 -12 -16 -37 -16 -105 0 -85 1 -89 19 -80 16 9 19 22
18 81 -1 77 9 96 46 86 22 -5 24 -10 25 -87 0 -44 3 -83 5 -85 3 -3 11 2 19 9
18 19 17 159 -2 182 -17 20 -93 20 -114 -1z"/>
<path d="M1426 1397 c-14 -10 -18 -28 -19 -80 -1 -79 11 -97 68 -102 29 -3 43
2 61 20 14 14 21 30 18 39 -9 22 -31 20 -39 -4 -4 -14 -15 -20 -36 -20 -41 0
-36 12 21 51 39 27 50 40 50 61 0 17 -8 31 -19 38 -27 14 -84 13 -105 -3z m84
-32 c7 -8 8 -15 4 -15 -5 0 -22 -11 -37 -25 -17 -16 -27 -21 -28 -13 -1 7 -2
20 -3 28 -4 37 40 54 64 25z"/>
<path d="M1987 1397 c-14 -9 -18 -29 -20 -81 -1 -60 1 -70 21 -86 25 -20 83
-20 107 0 22 18 20 62 -2 58 -10 -2 -18 -10 -18 -18 0 -10 -12 -16 -32 -18
-18 -2 -33 0 -33 5 0 4 22 24 50 43 55 39 67 80 31 100 -27 14 -84 13 -104 -3z
m80 -28 c9 -9 3 -19 -24 -40 -20 -16 -36 -29 -37 -29 -5 0 1 57 7 68 10 15 39
16 54 1z"/>
<path d="M2182 1392 c-13 -13 -18 -28 -15 -46 6 -31 16 -38 63 -46 26 -4 35
-10 35 -25 0 -15 -8 -21 -32 -23 -28 -3 -33 0 -33 18 0 16 -4 20 -16 16 -9 -3
-18 -6 -20 -6 -2 0 -4 -9 -4 -20 0 -36 45 -52 116 -42 16 3 34 48 29 73 -6 31
-21 40 -75 43 -22 1 -26 46 -4 46 9 0 22 -7 28 -15 17 -22 45 -2 30 22 -16 26
-78 29 -102 5z"/>
<path d="M2373 1403 c-9 -3 -13 -34 -13 -104 0 -94 1 -99 19 -90 16 9 18 22
18 106 -1 52 -4 95 -7 94 -3 0 -11 -3 -17 -6z"/>
<path d="M2466 1394 c-11 -11 -16 -35 -16 -79 0 -77 21 -106 76 -101 26 2 34
-1 34 -15 0 -19 -19 -29 -55 -29 -27 0 -43 -19 -26 -30 18 -11 83 -1 101 15
21 19 22 214 1 239 -18 21 -94 21 -115 0z m81 -22 c8 -5 11 -28 10 -62 -2 -49
-5 -55 -25 -58 -13 -2 -29 1 -35 7 -12 9 -14 79 -3 108 6 14 34 17 53 5z"/>
<path d="M2667 1396 c-15 -12 -18 -29 -19 -101 0 -47 1 -88 4 -90 2 -2 10 0
18 5 11 7 15 29 15 81 1 57 5 75 18 83 12 8 22 8 34 0 14 -9 18 -27 19 -85 2
-96 1 -91 22 -80 15 8 17 22 17 91 -1 69 -4 85 -20 96 -24 18 -85 17 -108 0z"/>
<path d="M460 1348 c0 -4 16 -7 35 -6 19 1 32 4 29 7 -9 9 -64 8 -64 -1z"/>
<path d="M508 1233 c7 -3 16 -2 19 1 4 3 -2 6 -13 5 -11 0 -14 -3 -6 -6z"/>
<path d="M270 1122 c0 -5 7 -9 15 -9 8 0 12 4 9 9 -3 4 -9 8 -15 8 -5 0 -9 -4
-9 -8z"/>
<path d="M310 1116 c0 -2 7 -7 16 -10 8 -3 12 -2 9 4 -6 10 -25 14 -25 6z"/>
<path d="M700 1090 c0 -16 4 -30 8 -30 5 0 8 14 8 30 0 17 -3 30 -8 30 -4 0
-8 -13 -8 -30z"/>
<path d="M1016 1110 c-7 -23 -4 -50 7 -50 5 0 7 6 4 14 -3 8 -2 16 3 18 6 2 6
9 0 18 -8 13 -9 13 -14 0z"/>
<path d="M1129 1120 c-4 -17 -7 -60 -4 -60 12 0 23 38 14 51 -5 7 -9 12 -10 9z"/>
<path d="M1418 1106 c-21 -20 -23 -32 -7 -42 16 -10 31 10 27 37 -3 22 -4 22
-20 5z"/>
<path d="M1585 1100 c-7 -23 1 -40 20 -40 18 0 30 39 16 53 -11 11 -16 -1 -12
-32 2 -7 -3 -10 -9 -6 -6 4 -8 15 -5 26 4 10 4 19 1 19 -2 0 -7 -9 -11 -20z"/>
<path d="M1738 1113 c-22 -6 -32 -34 -16 -45 19 -11 28 -10 29 5 0 6 2 20 4
30 2 9 3 16 2 16 -1 -1 -9 -3 -19 -6z"/>
<path d="M1917 1113 c-8 -13 -2 -48 8 -48 11 0 15 30 5 45 -4 7 -10 8 -13 3z"/>
<path d="M2079 1111 c-4 -36 -3 -45 10 -49 8 -3 11 0 7 7 -4 6 0 11 9 11 22 0
15 34 -8 38 -9 2 -18 -1 -18 -7z m31 -11 c0 -5 -4 -10 -10 -10 -5 0 -10 5 -10
10 0 6 5 10 10 10 6 0 10 -4 10 -10z"/>
<path d="M2210 1099 c0 -11 4 -17 10 -14 6 3 7 -1 4 -9 -4 -11 0 -16 10 -16
23 0 20 33 -4 48 -18 11 -20 10 -20 -9z"/>
<path d="M2315 1096 c4 -34 11 -42 18 -22 3 8 0 22 -8 32 -11 16 -12 15 -10
-10z"/>
<path d="M2478 1108 c-6 -16 2 -48 11 -48 9 0 8 46 0 55 -4 3 -9 0 -11 -7z"/>
<path d="M2587 1113 c-4 -3 -7 -18 -7 -31 0 -32 15 -19 15 14 1 27 1 27 -8 17z"/>
<path d="M750 1100 c-8 -5 -10 -15 -5 -26 7 -18 8 -18 15 1 7 16 9 16 9 3 1
-18 33 -18 38 -1 7 20 -35 37 -57 23z"/>
<path d="M842 1097 c-9 -10 -10 -26 -3 -55 3 -10 31 29 31 42 0 21 -16 28 -28
13z"/>
<path d="M907 1104 c-4 -4 -7 -16 -7 -26 0 -20 25 -25 36 -7 8 13 -19 43 -29
33z"/>
<path d="M966 1095 c-11 -8 -14 -15 -7 -15 7 0 9 -4 6 -10 -3 -5 -2 -10 3 -10
5 0 12 11 14 25 3 14 5 25 4 25 0 0 -10 -7 -20 -15z"/>
<path d="M1074 1095 c3 -10 -1 -15 -12 -15 -15 0 -15 -2 -2 -10 8 -5 20 -10
25 -10 17 0 15 38 -2 44 -11 4 -14 2 -9 -9z"/>
<path d="M1176 1103 c-12 -13 -5 -43 10 -43 10 0 14 5 10 16 -3 8 -2 12 4 9 6
-3 10 -2 10 3 0 12 -26 23 -34 15z"/>
<path d="M1260 1090 c-2 -18 -4 -20 -7 -7 -2 9 -8 17 -13 17 -15 0 -4 -35 13
-38 20 -4 26 8 16 33 -7 18 -8 18 -9 -5z"/>
<path d="M1298 1085 c-3 -15 -1 -25 7 -25 6 0 11 9 10 20 -2 30 -12 34 -17 5z"/>
<path d="M1478 1099 c-19 -11 -13 -39 8 -39 8 0 14 10 14 25 0 28 1 28 -22 14z"/>
<path d="M1787 1104 c-12 -12 -8 -35 8 -50 13 -14 16 -14 21 0 12 31 -10 69
-29 50z"/>
<path d="M1852 1089 c-7 -18 -6 -25 5 -27 26 -6 39 16 20 35 -15 16 -17 15
-25 -8z"/>
<path d="M1967 1104 c-4 -4 -1 -14 6 -22 9 -13 9 -14 0 -8 -7 4 -13 2 -13 -3
0 -13 27 -15 34 -2 7 11 -18 44 -27 35z"/>
<path d="M2275 1090 c2 -30 12 -34 17 -5 3 15 1 25 -7 25 -6 0 -11 -9 -10 -20z"/>
<path d="M2370 1096 c-13 -17 -6 -36 15 -36 19 0 26 27 11 39 -10 8 -17 7 -26
-3z m30 -10 c0 -3 -4 -8 -10 -11 -5 -3 -10 -1 -10 4 0 6 5 11 10 11 6 0 10 -2
10 -4z"/>
<path d="M2430 1085 c0 -14 4 -25 8 -25 4 0 8 11 8 25 0 14 -4 25 -8 25 -4 0
-8 -11 -8 -25z"/>
<path d="M2534 1094 c4 -9 2 -13 -5 -8 -7 4 -10 1 -7 -6 5 -15 38 -23 38 -10
0 17 -13 40 -22 40 -6 0 -7 -7 -4 -16z"/>
<path d="M2676 1103 c-2 -2 -2 -13 1 -24 7 -27 33 -24 33 4 0 21 -21 33 -34
20z"/>
<path d="M2749 1105 c-1 -5 -1 -14 0 -19 1 -5 -4 -13 -11 -17 -9 -6 -6 -9 9
-9 29 0 36 13 18 36 -8 10 -15 15 -16 9z"/>
<path d="M1656 1084 c-9 -23 -8 -24 14 -24 13 0 20 7 20 20 0 24 -25 27 -34 4z"/>
<path d="M2147 1080 c6 -24 28 -26 37 -4 9 22 -3 32 -14 14 -7 -10 -10 -11
-10 -2 0 6 -4 12 -9 12 -5 0 -7 -9 -4 -20z"/>
<path d="M2629 1098 c-7 -23 -5 -38 3 -36 14 5 20 38 7 38 -5 0 -9 -1 -10 -2z"/>
<path d="M267 1084 c-2 -2 -26 -6 -53 -8 -62 -6 -178 -42 -193 -60 -10 -12 -4
-18 32 -34 76 -34 85 -35 115 -14 15 11 45 25 67 33 46 15 183 19 238 7 20 -4
54 -11 75 -14 20 -3 71 -17 112 -30 41 -13 75 -22 77 -20 13 13 -219 106 -302
121 -78 14 -163 24 -168 19z"/>
</g>
</svg>
